<svg width="218" height="45" viewBox="0 0 218 45" fill="none" xmlns="http://www.w3.org/2000/svg">
<path d="M49.4919 8V20.76H66.2919V8H68.7319V36H66.2919V22.96H49.4919V36H47.0519V8H49.4919ZM85.7137 36C85.4737 34.9867 85.2871 33.92 85.1537 32.8C84.4604 33.92 83.5671 34.8 82.4737 35.44C81.3804 36.0533 80.1138 36.36 78.6737 36.36C76.5671 36.36 74.8604 35.8 73.5537 34.68C72.2737 33.56 71.6337 32.0933 71.6337 30.28C71.6337 28.6 72.2871 27.2667 73.5937 26.28C74.9271 25.2667 76.8204 24.6133 79.2737 24.32L85.1537 23.64V22.44C85.1537 21.0533 84.7004 19.9467 83.7938 19.12C82.9138 18.2933 81.7538 17.88 80.3138 17.88C78.9004 17.88 77.7538 18.2 76.8737 18.84C75.9938 19.4533 75.4871 20.3067 75.3537 21.4H72.9937C73.2604 19.6667 74.0471 18.2933 75.3537 17.28C76.6604 16.24 78.3138 15.72 80.3138 15.72C82.5004 15.72 84.2337 16.3867 85.5138 17.72C86.8204 19.0267 87.4737 20.7867 87.4737 23V30.52C87.4737 33.16 87.5404 34.9867 87.6738 36H85.7137ZM73.9937 30.36C73.9937 31.5067 74.4337 32.44 75.3137 33.16C76.2204 33.88 77.3938 34.24 78.8338 34.24C80.7804 34.24 82.3137 33.6667 83.4338 32.52C84.5804 31.3733 85.1537 29.8533 85.1537 27.96V25.52L79.1937 26.24C77.5671 26.4533 76.2871 26.92 75.3537 27.64C74.4471 28.3333 73.9937 29.24 73.9937 30.36ZM92.5947 16.12C92.8347 16.9733 93.0214 17.9867 93.1547 19.16C93.768 18.04 94.4747 17.1867 95.2747 16.6C96.1014 16.0133 97.1014 15.72 98.2747 15.72C98.648 15.72 98.928 15.7333 99.1147 15.76V17.92C98.9547 17.8933 98.7147 17.88 98.3947 17.88C96.8747 17.88 95.6214 18.44 94.6347 19.56C93.648 20.6533 93.1547 22.08 93.1547 23.84V36H90.7947V21.6C90.7947 19.2 90.7414 17.3733 90.6347 16.12H92.5947ZM101.803 16.12L108.483 33.44L115.123 16.12H117.483L109.683 36H107.203L99.4028 16.12H101.803ZM127.365 36.32C125.551 36.32 123.938 35.88 122.525 35C121.111 34.12 120.005 32.9067 119.205 31.36C118.431 29.7867 118.045 28 118.045 26C118.045 24 118.431 22.2267 119.205 20.68C120.005 19.1067 121.111 17.8933 122.525 17.04C123.938 16.16 125.538 15.72 127.325 15.72C129.138 15.72 130.751 16.16 132.165 17.04C133.578 17.8933 134.671 19.1067 135.445 20.68C136.245 22.2267 136.645 24 136.645 26V26.64H120.405C120.538 28.9333 121.231 30.76 122.485 32.12C123.738 33.48 125.351 34.16 127.325 34.16C128.925 34.16 130.285 33.7733 131.405 33C132.551 32.2 133.351 31.0933 133.805 29.68H136.285C135.725 31.7067 134.645 33.32 133.045 34.52C131.445 35.72 129.551 36.32 127.365 36.32ZM134.245 24.68C134.031 22.6267 133.298 20.9867 132.045 19.76C130.818 18.5067 129.245 17.88 127.325 17.88C125.458 17.88 123.898 18.4933 122.645 19.72C121.418 20.9467 120.698 22.6 120.485 24.68H134.245ZM145.726 15.72C147.673 15.72 149.326 16.2267 150.686 17.24C152.073 18.2533 152.966 19.6267 153.366 21.36H150.926C150.713 20.2933 150.14 19.4533 149.206 18.84C148.273 18.2 147.113 17.88 145.726 17.88C144.34 17.88 143.22 18.1733 142.366 18.76C141.54 19.3467 141.126 20.1333 141.126 21.12C141.126 21.8667 141.366 22.4667 141.846 22.92C142.353 23.3733 142.953 23.72 143.646 23.96C144.366 24.2 145.433 24.4933 146.846 24.84C148.313 25.24 149.5 25.6267 150.406 26C151.34 26.3733 152.14 26.9467 152.806 27.72C153.473 28.4933 153.806 29.5067 153.806 30.76C153.806 32.4667 153.126 33.84 151.766 34.88C150.433 35.8933 148.66 36.4 146.446 36.4C144.18 36.4 142.26 35.8133 140.686 34.64C139.14 33.4667 138.166 31.88 137.766 29.88H140.246C140.54 31.2133 141.233 32.28 142.326 33.08C143.446 33.8533 144.82 34.24 146.446 34.24C147.966 34.24 149.193 33.92 150.126 33.28C151.06 32.64 151.526 31.7867 151.526 30.72C151.526 29.92 151.26 29.28 150.726 28.8C150.22 28.2933 149.593 27.92 148.846 27.68C148.1 27.4133 147.033 27.1067 145.646 26.76C144.206 26.4133 143.033 26.0667 142.126 25.72C141.22 25.3733 140.433 24.8267 139.766 24.08C139.126 23.3333 138.806 22.3333 138.806 21.08C138.806 19.4533 139.433 18.16 140.686 17.2C141.94 16.2133 143.62 15.72 145.726 15.72ZM154.288 18.16V16.12H157.488V11H159.848V16.12H164.408V18.12H159.848V30.76C159.848 31.8267 160.048 32.6933 160.448 33.36C160.875 34 161.662 34.32 162.808 34.32C163.582 34.32 164.382 34.2133 165.208 34V36.12C164.275 36.3067 163.422 36.4 162.648 36.4C160.862 36.4 159.555 35.88 158.728 34.84C157.902 33.7733 157.488 32.48 157.488 30.96V18.16H154.288ZM180.567 36C180.327 34.9867 180.14 33.92 180.007 32.8C179.314 33.92 178.42 34.8 177.327 35.44C176.234 36.0533 174.967 36.36 173.527 36.36C171.42 36.36 169.714 35.8 168.407 34.68C167.127 33.56 166.487 32.0933 166.487 30.28C166.487 28.6 167.14 27.2667 168.447 26.28C169.78 25.2667 171.674 24.6133 174.127 24.32L180.007 23.64V22.44C180.007 21.0533 179.554 19.9467 178.647 19.12C177.767 18.2933 176.607 17.88 175.167 17.88C173.754 17.88 172.607 18.2 171.727 18.84C170.847 19.4533 170.34 20.3067 170.207 21.4H167.847C168.114 19.6667 168.9 18.2933 170.207 17.28C171.514 16.24 173.167 15.72 175.167 15.72C177.354 15.72 179.087 16.3867 180.367 17.72C181.674 19.0267 182.327 20.7867 182.327 23V30.52C182.327 33.16 182.394 34.9867 182.527 36H180.567ZM168.847 30.36C168.847 31.5067 169.287 32.44 170.167 33.16C171.074 33.88 172.247 34.24 173.687 34.24C175.634 34.24 177.167 33.6667 178.287 32.52C179.434 31.3733 180.007 29.8533 180.007 27.96V25.52L174.047 26.24C172.42 26.4533 171.14 26.92 170.207 27.64C169.3 28.3333 168.847 29.24 168.847 30.36ZM187.448 16.12C187.768 17.2133 187.981 18.2533 188.088 19.24C188.834 18.1467 189.781 17.2933 190.928 16.68C192.074 16.04 193.248 15.72 194.448 15.72C195.808 15.72 197.021 16.0933 198.088 16.84C199.181 17.56 199.968 18.5733 200.448 19.88C201.194 18.5733 202.181 17.56 203.408 16.84C204.634 16.0933 205.941 15.72 207.328 15.72C208.554 15.72 209.661 16.0133 210.648 16.6C211.661 17.1867 212.448 18.0267 213.008 19.12C213.594 20.2133 213.888 21.5067 213.888 23V36H211.528V23C211.528 21.4 211.074 20.1467 210.168 19.24C209.288 18.3067 208.181 17.84 206.848 17.84C205.808 17.84 204.834 18.0933 203.928 18.6C203.048 19.1067 202.328 19.8267 201.768 20.76C201.234 21.6933 200.968 22.7733 200.968 24V36H198.608V23C198.608 21.4 198.154 20.1467 197.248 19.24C196.341 18.3067 195.221 17.84 193.888 17.84C192.874 17.84 191.914 18.0933 191.008 18.6C190.128 19.1067 189.408 19.8267 188.848 20.76C188.314 21.6933 188.048 22.7733 188.048 24V36H185.688V21.6C185.688 19.2 185.634 17.3733 185.528 16.12H187.448Z" fill="white"/>
<path d="M0 27.7595V31.9645C0 32.2279 0.222191 32.4379 0.485585 32.4356C9.73134 32.3533 15.0081 39.6331 16.8545 44.0796C17.0052 44.4426 17.5148 44.496 17.7217 44.1618L20.0927 40.3318C20.1752 40.1985 20.184 40.0297 20.1163 39.8882C15.0314 29.2618 5.15803 27.0751 0.425616 27.3041C0.184339 27.3158 0 27.5179 0 27.7595Z" fill="white"/>
<path d="M25.805 33.9366C18.1765 21.9307 6.01707 19.404 0.429172 19.6366C0.185457 19.6467 0 19.8497 0 20.0936V24.053C0 24.3192 0.225202 24.5304 0.491328 24.5236C10.7134 24.2617 18.6068 32.3793 21.5839 36.9088C21.732 37.1341 22.0379 37.1943 22.2565 37.0365L25.686 34.5596C25.8836 34.4169 25.9358 34.1423 25.805 33.9366Z" fill="white"/>
<path d="M22.961 26.812L19.6942 23.5451C19.4879 23.3389 19.5202 22.9956 19.7674 22.8409C24.1742 20.0821 30.4225 19.2763 33.4804 19.2017C33.7371 19.1954 33.9425 19.404 33.9425 19.6607V24.0445C33.9425 24.3139 33.7143 24.5264 33.4451 24.5145C28.6924 24.3059 25.103 25.8587 23.5798 26.8656C23.3854 26.9941 23.1258 26.9767 22.961 26.812Z" fill="white"/>
<path d="M27.7395 33.1461L25.176 29.3995C25.0169 29.1669 25.0995 28.847 25.3594 28.738C27.8252 27.7039 31.6506 27.38 33.7102 27.3373C33.9669 27.332 34.1738 27.5404 34.1738 27.7972V32.2629C34.1738 32.4998 33.9957 32.6989 33.7602 32.725L28.1745 33.3457C28.0038 33.3646 27.8365 33.2879 27.7395 33.1461Z" fill="white"/>
<path d="M14.0592 17.9907C6.31609 18.5037 5.12587 12.6477 5.52428 9.27888C5.5506 9.0563 5.74594 8.89262 5.97007 8.89285C13.8644 8.90068 14.9502 14.4854 14.4718 17.6215C14.4406 17.8254 14.265 17.977 14.0592 17.9907Z" fill="#D0F24C"/>
<path d="M19.8041 17.9907C27.5472 18.5037 28.7374 12.6477 28.339 9.27888C28.3127 9.0563 28.1173 8.89262 27.8932 8.89285C19.9989 8.90068 18.9131 14.4854 19.3915 17.6215C19.4226 17.8254 19.5983 17.977 19.8041 17.9907Z" fill="#D0F24C"/>
<path d="M16.6425 12.8755C10.6128 7.62389 14.0091 2.4856 16.7461 0.323368C16.922 0.184429 17.176 0.206314 17.3348 0.364523C23.0967 6.10667 19.8221 10.9704 17.1957 12.9051C17.0297 13.0275 16.798 13.011 16.6425 12.8755Z" fill="#D0F24C"/>
</svg>
