<svg width="22" height="26" viewBox="0 0 22 26" fill="none" xmlns="http://www.w3.org/2000/svg">
<path d="M11.3862 24.5087C11.1705 24.6642 10.9121 24.7478 10.6472 24.7478C10.3822 24.7478 10.1238 24.6642 9.90816 24.5087C3.53551 19.9196 -3.22775 10.4801 3.60942 3.65918C5.48579 1.79277 8.014 0.747686 10.6472 0.750004C13.2865 0.750004 15.8189 1.79661 17.6849 3.65784C24.5221 10.4788 17.7588 19.917 11.3862 24.5087Z" stroke="white" stroke-width="1.5" stroke-linecap="round" stroke-linejoin="round"/>
<path d="M10.6432 12.7491C11.3432 12.7491 12.0145 12.4681 12.5095 11.968C13.0045 11.468 13.2825 10.7897 13.2825 10.0825C13.2825 9.37533 13.0045 8.69709 12.5095 8.19702C12.0145 7.69695 11.3432 7.41602 10.6432 7.41602C9.94324 7.41602 9.27191 7.69695 8.77695 8.19702C8.28198 8.69709 8.00391 9.37533 8.00391 10.0825C8.00391 10.7897 8.28198 11.468 8.77695 11.968C9.27191 12.4681 9.94324 12.7491 10.6432 12.7491Z" stroke="white" stroke-width="1.5" stroke-linecap="round" stroke-linejoin="round"/>
</svg>
