<svg width="17" height="17" viewBox="0 0 17 17" fill="none" xmlns="http://www.w3.org/2000/svg">
<g clip-path="url(#clip0_2006_244)">
<path d="M17 16.6233V10.3375C17 6.96941 15.2023 5.40222 12.8053 5.40222C10.871 5.40222 10.004 6.46631 9.52106 7.21325V5.65987H5.87669C5.92503 6.68891 5.87669 16.6233 5.87669 16.6233H9.52106V10.5006C9.52106 10.1739 9.54444 9.84612 9.64113 9.61237C9.90409 8.95734 10.5039 8.27947 11.5101 8.27947C12.8292 8.27947 13.3562 9.28459 13.3562 10.7583V16.6238L17 16.6233ZM2.03734 4.16334C3.30756 4.16334 4.09966 3.32078 4.09966 2.26837C4.07628 1.19312 3.30809 0.375 2.06178 0.375C0.815469 0.375 0 1.19259 0 2.26837C0 3.32078 0.791031 4.16334 2.0145 4.16334H2.03734ZM3.85953 16.6233V5.65987H0.215687V16.6233H3.85953Z" fill="black"/>
</g>
<defs>
<clipPath id="clip0_2006_244">
<rect width="17" height="17" fill="white"/>
</clipPath>
</defs>
</svg>
